<svg width="108" height="108" viewBox="0 0 108 108" fill="none" xmlns="http://www.w3.org/2000/svg">
<rect x="1" y="1" width="106" height="106" rx="53" fill="white"/>
<path fill-rule="evenodd" clip-rule="evenodd" d="M74.1257 30.6799C75.5654 30.6799 76.7395 31.854 76.7395 33.2936V81.3862C76.7395 82.8257 75.5654 84 74.1257 84H33.8745C32.4349 84 31.2607 82.8259 31.2607 81.3862V33.2936C31.2607 31.8541 32.4349 30.6799 33.8745 30.6799H39.4181V33.5355C39.4181 35.7515 41.2196 37.5529 43.4356 37.5529H64.5649C66.7807 37.5529 68.5824 35.7514 68.5824 33.5355V30.6799H74.1257ZM54.6727 61.3719H67.0197C67.8029 61.3719 68.4377 60.737 68.4377 59.9539C68.4377 59.1707 67.8029 58.5359 67.0197 58.5359H54.6727C53.8896 58.5359 53.2547 59.1707 53.2547 59.9539C53.2547 60.737 53.8896 61.3719 54.6727 61.3719ZM54.6727 73.8003H67.0197C67.8029 73.8003 68.4377 73.1654 68.4377 72.3823C68.4377 71.5991 67.8029 70.9642 67.0197 70.9642H54.6727C53.8896 70.9642 53.2547 71.5991 53.2547 72.3823C53.2547 73.1655 53.8896 73.8003 54.6727 73.8003ZM54.6727 48.9434H67.0197C67.8029 48.9434 68.4377 48.3085 68.4377 47.5254C68.4377 46.7423 67.8029 46.1074 67.0197 46.1074H54.6727C53.8896 46.1074 53.2547 46.7423 53.2547 47.5254C53.2547 48.3086 53.8896 48.9434 54.6727 48.9434ZM39.3329 48.7476L41.4844 50.899C42.038 51.4526 42.9357 51.4526 43.4894 50.899L43.4971 50.891L48.665 46.2011C49.2431 45.675 49.2852 44.7798 48.7591 44.2016C48.233 43.6235 47.3377 43.5814 46.7596 44.1075L42.5359 47.9406L41.3379 46.7426C40.7842 46.189 39.8865 46.189 39.3327 46.7426C38.7792 47.2962 38.7792 48.194 39.3329 48.7476ZM39.3329 73.6045L41.4844 75.7559C42.038 76.3095 42.9357 76.3095 43.4894 75.7559L43.4971 75.7479L48.665 71.058C49.2431 70.5319 49.2852 69.6366 48.7591 69.0585C48.233 68.4804 47.3377 68.4382 46.7596 68.9644L42.5359 72.7975L41.3379 71.5995C40.7842 71.0459 39.8865 71.0459 39.3327 71.5995C38.7792 72.1531 38.7792 73.0509 39.3329 73.6045ZM39.3329 61.1761L41.4844 63.3275C42.038 63.8811 42.9357 63.8811 43.4894 63.3275L43.4971 63.3195L48.665 58.6296C49.2431 58.1035 49.2852 57.2082 48.7591 56.6301C48.233 56.052 47.3377 56.0099 46.7596 56.5359L42.5359 60.369L41.3379 59.171C40.7842 58.6174 39.8865 58.6174 39.3327 59.171C38.7792 59.7246 38.7792 60.6224 39.3329 61.1761ZM43.4355 27.9662C42.7847 27.9662 42.2539 28.497 42.2539 29.1479V33.5355C42.2539 34.1862 42.7847 34.717 43.4355 34.717H64.5647C65.2155 34.717 65.7464 34.1861 65.7464 33.5355V29.1477C65.7464 28.497 65.2156 27.9661 64.5647 27.9661H59.042C58.4931 25.6906 56.4442 24 54.0001 24C51.556 24 49.5071 25.6906 48.9582 27.9662H43.4355Z" fill="#A54E50"/>
<rect x="1" y="1" width="106" height="106" rx="53" stroke="#A54E50" stroke-width="2"/>
</svg>
