<svg width="108" height="108" viewBox="0 0 108 108" fill="none" xmlns="http://www.w3.org/2000/svg">
<rect x="1" y="1" width="106" height="106" rx="53" fill="white"/>
<path d="M48.34 62.4901C48.5259 62.3043 48.6734 62.0837 48.7741 61.8409C48.8747 61.5981 48.9265 61.3379 48.9265 61.0751C48.9265 60.8122 48.8747 60.552 48.7741 60.3092C48.6734 60.0664 48.5259 59.8458 48.34 59.6601L47.64 58.9501L41.98 53.2901C41.7938 53.1038 41.5722 52.9566 41.3284 52.857C41.0846 52.7574 40.8233 52.7074 40.56 52.7101C40.0322 52.7114 39.5259 52.9196 39.15 53.2901C38.9631 53.4753 38.8147 53.6957 38.7134 53.9385C38.6122 54.1814 38.5601 54.4419 38.5601 54.7051C38.5601 54.9682 38.6122 55.2287 38.7134 55.4716C38.8147 55.7145 38.9631 55.9349 39.15 56.1201L45.51 62.4901C45.8868 62.8625 46.3952 63.0713 46.925 63.0713C47.4547 63.0713 47.9632 62.8625 48.34 62.4901Z" fill="#A54E50"/>
<path d="M51.88 57.54C52.066 57.3543 52.2135 57.1337 52.3141 56.8909C52.4148 56.6481 52.4666 56.3879 52.4666 56.125C52.4666 55.8622 52.4148 55.6019 52.3141 55.3592C52.2135 55.1164 52.066 54.8958 51.88 54.71L50.47 53.29H50.46L47.99 50.82L45.51 48.34C45.1289 47.996 44.6302 47.8116 44.1169 47.8252C43.6037 47.8387 43.1154 48.0491 42.753 48.4128C42.3906 48.7764 42.1819 49.2655 42.1702 49.7788C42.1585 50.2921 42.3446 50.7902 42.69 51.17L43.39 51.88L49.05 57.54C49.4279 57.9103 49.9359 58.1176 50.465 58.1176C50.9941 58.1176 51.5021 57.9103 51.88 57.54Z" fill="#A54E50"/>
<path d="M58.9499 44.81L53.2899 39.15C52.9073 38.7888 52.4011 38.5875 51.8749 38.5875C51.3487 38.5875 50.8425 38.7888 50.4599 39.15C50.0875 39.5268 49.8787 40.0353 49.8787 40.565C49.8787 41.0948 50.0875 41.6032 50.4599 41.98L56.1199 47.64L58.9499 44.81Z" fill="#A54E50"/>
<path d="M54.7099 49.05L48.3399 42.69C47.9597 42.3242 47.4526 42.1199 46.9249 42.1199C46.3973 42.1199 45.8902 42.3242 45.5099 42.69C45.3245 42.875 45.1774 43.0948 45.0771 43.3368C44.9767 43.5787 44.925 43.8381 44.925 44.1C44.925 44.3619 44.9767 44.6213 45.0771 44.8633C45.1774 45.1052 45.3245 45.325 45.5099 45.51L49.3999 49.4L51.8799 51.88C52.2625 52.2413 52.7688 52.4425 53.2949 52.4425C53.8211 52.4425 54.3274 52.2413 54.7099 51.88L54.8299 51.73C54.6423 51.3347 54.5449 50.9026 54.5449 50.465C54.5449 50.0274 54.6423 49.5953 54.8299 49.2L54.7099 49.05Z" fill="#A54E50"/>
<path d="M58.95 41.98L60.36 43.39C61.1226 42.6625 62.136 42.2567 63.1899 42.2567C64.2439 42.2567 65.2573 42.6625 66.02 43.39L68.8499 46.22L70.15 44.92C70.4405 44.6248 70.7904 44.3945 71.1766 44.2445C71.5627 44.0946 71.9763 44.0283 72.3899 44.05C73.7626 44.1323 75.1359 43.8988 76.4042 43.3673C77.6724 42.8359 78.802 42.0207 79.7059 40.9844C80.6099 39.9482 81.2642 38.7184 81.6185 37.3897C81.9729 36.061 82.0178 34.6688 81.75 33.32L76.47 38.6C76.3603 38.7108 76.2265 38.7946 76.079 38.8449C75.9315 38.8952 75.7744 38.9107 75.6199 38.89L70.6699 38.18C70.4553 38.1496 70.2563 38.0503 70.103 37.897C69.9497 37.7437 69.8503 37.5447 69.82 37.33L69.11 32.38C69.0893 32.2256 69.1047 32.0684 69.1551 31.9209C69.2054 31.7734 69.2892 31.6396 69.4 31.53L74.68 26.25C73.3312 25.9821 71.9389 26.0271 70.6102 26.3814C69.2815 26.7358 68.0518 27.3901 67.0155 28.294C65.9793 29.198 65.1641 30.3275 64.6326 31.5958C64.1012 32.8641 63.8676 34.2374 63.95 35.61C63.9725 36.0238 63.9066 36.4376 63.7566 36.8239C63.6066 37.2101 63.3759 37.56 63.08 37.85L58.95 41.98Z" fill="#A54E50"/>
<path d="M74.53 65.99C73.0187 64.2851 72.0721 62.1543 71.82 59.89L71.1 53.47C70.9167 51.8881 70.2091 50.413 69.09 49.28L64.61 44.81C64.2298 44.4442 63.7226 44.2399 63.195 44.2399C62.6674 44.2399 62.1603 44.4442 61.78 44.81L56.83 49.76C56.6438 49.9474 56.5392 50.2008 56.5392 50.465C56.5392 50.7292 56.6438 50.9826 56.83 51.17C57.3925 51.7318 58.155 52.0474 58.95 52.0474C59.745 52.0474 60.5075 51.7318 61.07 51.17C61.6417 50.6259 62.4008 50.3224 63.19 50.3224C63.9793 50.3224 64.7383 50.6259 65.31 51.17C65.5889 51.4481 65.8102 51.7785 65.9612 52.1423C66.1122 52.5061 66.1899 52.8961 66.1899 53.29C66.1899 53.6839 66.1122 54.0739 65.9612 54.4377C65.8102 54.8014 65.5889 55.1319 65.31 55.41L64.61 56.12C63.6727 57.0576 63.1461 58.3292 63.1461 59.655C63.1461 60.9808 63.6727 62.2524 64.61 63.19L65.31 63.9C65.4963 64.0874 65.6008 64.3408 65.6008 64.605C65.6008 64.8692 65.4963 65.1226 65.31 65.31C65.2188 65.4049 65.1093 65.4804 64.9881 65.532C64.867 65.5836 64.7367 65.6102 64.605 65.6102C64.4734 65.6102 64.343 65.5836 64.2219 65.532C64.1008 65.4804 63.9913 65.4049 63.9 65.31L63.19 64.61C61.8788 63.2963 61.1424 61.5161 61.1424 59.66C61.1424 57.8039 61.8788 56.0237 63.19 54.71L63.9 54C63.9932 53.9069 64.0668 53.7961 64.1166 53.6742C64.1664 53.5523 64.1913 53.4217 64.19 53.29C64.1913 53.1598 64.1663 53.0307 64.1164 52.9104C64.0666 52.7901 63.993 52.6811 63.9 52.59C63.7109 52.4071 63.4581 52.3048 63.195 52.3048C62.9319 52.3048 62.6791 52.4071 62.49 52.59C61.6721 53.4027 60.5992 53.909 59.4519 54.0237C58.3046 54.1385 57.1527 53.8546 56.19 53.22C56.16 53.24 56.15 53.27 56.12 53.29C55.5584 53.8593 54.8361 54.2431 54.05 54.39C54.3369 54.9715 54.4766 55.6146 54.4568 56.2628C54.4369 56.9109 54.2582 57.5443 53.9363 58.1072C53.6143 58.6701 53.159 59.1453 52.6104 59.491C52.0619 59.8367 51.4367 60.0424 50.79 60.09C51.0069 60.9376 50.9393 61.833 50.5976 62.6383C50.2559 63.4437 49.6589 64.1145 48.8987 64.5475C48.1384 64.9805 47.257 65.1516 46.3899 65.0346C45.5229 64.9176 44.7183 64.519 44.1 63.9L40.56 60.36L37.69 63.24C37.3978 63.5329 37.0476 63.7616 36.6618 63.9114C36.2761 64.0612 35.8634 64.1289 35.45 64.11C35.27 64.1 35.05 64.09 34.9 64.09C32.5131 64.0887 30.2234 65.0356 28.5346 66.7225C26.8458 68.4094 25.8963 70.698 25.895 73.085C25.8937 75.4719 26.8406 77.7617 28.5275 79.4504C30.2144 81.1392 32.5031 82.0887 34.89 82.09H34.92C37.3052 82.0873 39.5919 81.138 41.2775 79.4504C42.9632 77.7629 43.91 75.4752 43.91 73.09C43.91 72.91 43.9 72.73 43.89 72.55C43.8688 72.1364 43.9354 71.723 44.0854 71.3369C44.2353 70.9509 44.4652 70.6009 44.76 70.31L59.66 55.41C59.8474 55.2237 60.1008 55.1192 60.365 55.1192C60.6292 55.1192 60.8827 55.2237 61.07 55.41C61.2574 55.5988 61.3625 55.854 61.3625 56.12C61.3625 56.386 61.2574 56.6412 61.07 56.83L50.46 67.44L61.78 78.75L74.53 65.99ZM41.192 75.29L37.109 79.372C36.9215 79.5596 36.6672 79.6649 36.402 79.665C36.3149 79.6651 36.2281 79.6536 36.144 79.631L30.567 78.14C30.3975 78.0946 30.2429 78.0053 30.1188 77.8812C29.9947 77.7571 29.9055 77.6025 29.86 77.433L28.366 71.856C28.3208 71.6866 28.3209 71.5082 28.3664 71.3388C28.4118 71.1695 28.501 71.015 28.625 70.891L32.707 66.808C32.8311 66.6838 32.9857 66.5945 33.1553 66.5491C33.3249 66.5036 33.5034 66.5036 33.673 66.549L39.25 68.043C39.4195 68.0884 39.5741 68.1777 39.6982 68.3018C39.8223 68.4259 39.9116 68.5805 39.957 68.75L41.451 74.327C41.4964 74.4966 41.4964 74.6751 41.451 74.8447C41.4055 75.0143 41.3162 75.1689 41.192 75.293V75.29Z" fill="#A54E50"/>
<path d="M33.713 68.63L30.447 71.896L31.642 76.358L36.104 77.553L39.37 74.287L38.174 69.826L33.713 68.63Z" fill="#A54E50"/>
<path d="M82.28 70.97L77.33 66.02L61.78 81.58L62.49 82.28C62.5833 82.3735 62.6571 82.4846 62.7073 82.6068C62.7574 82.729 62.7828 82.8599 62.782 82.992L83 83L82.992 71.262C82.8599 71.2628 82.729 71.2374 82.6068 71.1873C82.4846 71.1371 82.3735 71.0633 82.28 70.97Z" fill="#A54E50"/>
<rect x="1" y="1" width="106" height="106" rx="53" stroke="#A54E50" stroke-width="2"/>
</svg>
