<svg width="291" height="64" viewBox="0 0 291 64" fill="none" xmlns="http://www.w3.org/2000/svg">
<path d="M5.74878 12.8109V15.6581H12.4173V12.8109H5.74878ZM9.22039 7.86576V10.738H17.2875V7.86576H9.22039ZM18.4364 8.96468L15.9139 9.51415C17.7371 16.6821 20.884 22.1019 26.8032 24.7992C27.2528 23.975 28.2268 22.7262 28.9012 22.1268C23.2817 19.9789 19.9849 15.0088 18.4364 8.96468ZM25.2797 9.83883C23.7562 11.687 21.1837 14.0098 19.2106 15.4084L21.3336 17.1567C23.3316 15.858 25.9041 13.76 28.052 11.8619L25.2797 9.83883ZM15.4893 7.86576V22.7262C15.4893 23.1259 15.3394 23.2507 14.8899 23.2757C14.4653 23.2757 12.8918 23.2757 11.618 23.2008C12.0676 24.025 12.5172 25.3487 12.642 26.2228C14.765 26.2228 16.2635 26.1729 17.3375 25.6983C18.3864 25.1988 18.7361 24.3746 18.7361 22.7762V7.86576H15.4893ZM11.1685 5.31824C14.2155 6.09249 18.2865 7.59102 20.3096 8.7399L21.908 5.94263C19.7601 4.84371 15.5892 3.49502 12.667 2.87063L11.1685 5.31824ZM11.2934 12.8109V13.3854C10.4192 17.4064 8.09649 20.7282 5.12439 22.4765C5.84868 22.951 7.07249 24.0999 7.54702 24.7493C10.619 22.6763 13.2415 18.7801 14.4403 13.5602L12.4173 12.711L11.8928 12.8109H11.2934ZM45.179 2.79571V26.2478H48.0762V2.79571H45.179ZM42.8313 7.74088C42.6565 9.83883 42.2319 12.6111 41.6325 14.2845L44.0052 15.1337C44.6046 13.2105 45.0292 10.2384 45.1291 8.04058L42.8313 7.74088ZM47.5767 7.79083C48.2011 9.26439 48.9503 11.2125 49.25 12.4113L51.4729 11.3374C51.1482 10.2384 50.324 8.31532 49.6746 6.91668L47.5767 7.79083ZM50.3989 3.94459V6.66693H65.0846V3.94459H50.3989ZM49.7745 22.4016V25.1739H65.3094V22.4016H49.7745ZM54.2701 15.8829H60.7139V18.2306H54.2701V15.8829ZM54.2701 11.1376H60.7139V13.4603H54.2701V11.1376ZM51.398 8.5401V20.8281H63.7609V8.5401H51.398ZM84.3345 17.856V19.7292H100.768V17.856H84.3345ZM83.0858 20.8031V22.7262H101.842V20.8031H83.0858ZM98.171 14.3344C95.074 14.9089 89.4046 15.2336 84.6842 15.2835C84.884 15.7331 85.1587 16.5323 85.1837 17.0318C90.0789 17.0068 95.9482 16.7071 99.8694 15.9329L98.171 14.3344ZM91.053 16.0078V23.6004C91.053 23.975 90.9031 24.0749 90.4785 24.0999C90.0789 24.1249 88.3306 24.1249 87.0069 24.05C87.3566 24.6993 87.7312 25.6234 87.906 26.2978C90.004 26.2978 91.5025 26.2978 92.5765 25.998C93.6504 25.6734 94.0001 25.074 94.0001 23.7003V16.0078H91.053ZM83.9349 8.34029V10.3383H92.052V8.34029H83.9349ZM92.7513 8.34029V10.3383H101.518V8.34029H92.7513ZM86.957 6.96663V14.5342H89.1049V6.96663H86.957ZM95.7734 6.96663V14.3095H97.9462V6.96663H95.7734ZM87.0819 9.53912C86.2577 10.8129 84.6842 12.1366 83.1357 12.786C83.5853 13.1606 84.2097 13.8849 84.5343 14.3594C86.1578 13.5102 87.7562 11.762 88.6303 10.0886L87.0819 9.53912ZM95.7734 9.53912C94.9741 10.8129 93.4007 12.1116 91.8772 12.736C92.3267 13.1106 92.9511 13.8349 93.2758 14.3095C94.8742 13.4853 96.4727 11.737 97.3468 10.0886L95.7734 9.53912ZM98.1211 9.78888L96.5476 10.4632C97.4717 11.8868 99.17 13.5352 100.594 14.3844C100.943 13.8599 101.618 13.1106 102.092 12.736C100.694 12.1116 99.0202 10.9128 98.1211 9.78888ZM88.93 10.4382L87.7312 11.2874C88.4805 11.8369 90.1039 13.1106 90.7033 13.71L92.102 12.2115C91.6024 11.8619 89.5544 10.7629 88.93 10.4382ZM89.5544 2.79571V6.11746H92.6764V2.79571H89.5544ZM82.0867 4.61893V7.09151H101.743V4.61893H82.0867ZM80.3634 4.61893V12.6361C80.3634 16.2326 80.2136 21.1528 78.3154 24.5495C78.9398 24.8492 80.1137 25.8232 80.6132 26.3477C82.7611 22.6014 83.1357 16.6072 83.1357 12.6361V4.61893H80.3634ZM129.334 6.24234V21.7772C129.334 24.974 130.034 25.9481 132.631 25.9481C133.131 25.9481 134.854 25.9481 135.403 25.9481C137.726 25.9481 138.45 24.5245 138.75 20.4535C137.926 20.2537 136.702 19.7292 136.028 19.2047C135.928 22.3516 135.803 23.1259 135.104 23.1259C134.754 23.1259 133.43 23.1259 133.131 23.1259C132.431 23.1259 132.331 22.951 132.331 21.7772V6.24234H129.334ZM134.704 2.99551C132.281 4.04449 128.21 4.96859 124.514 5.49307C124.864 6.14244 125.288 7.26634 125.413 7.94068C129.359 7.44117 133.905 6.592 137.227 5.29327L134.704 2.99551ZM124.539 13.6601L125.014 16.5073L138.7 14.4094L138.251 11.6371L124.539 13.6601ZM115.198 15.4833L115.972 18.3555C118.395 17.7311 121.542 16.9319 124.414 16.1327L124.064 13.3604C120.893 14.1846 117.471 15.0088 115.198 15.4833ZM115.473 7.54107V10.3383H124.264V7.54107H115.473ZM118.545 2.79571V22.8761C118.545 23.2258 118.42 23.3506 118.07 23.3506C117.746 23.3506 116.697 23.3756 115.723 23.3257C116.072 24.0749 116.447 25.2987 116.547 26.048C118.32 26.048 119.519 25.9731 120.368 25.5235C121.217 25.074 121.467 24.3247 121.467 22.9011V2.79571H118.545ZM161.397 2.82068C159.449 3.4201 156.552 3.91961 154.029 4.19434C154.304 4.79376 154.628 5.71785 154.703 6.31727C157.276 6.16741 160.373 5.76781 162.696 5.11844L161.397 2.82068ZM158.225 7.49112C159.224 9.16449 160.273 11.4123 160.648 12.8109L163.045 11.762C162.621 10.3383 161.472 8.16546 160.473 6.54205L158.225 7.49112ZM163.545 3.81971V6.11746H172.336V3.81971H163.545ZM171.437 3.81971V4.21932C171.237 8.29034 170.937 9.8638 170.588 10.2884C170.363 10.5132 170.163 10.5631 169.814 10.5631C169.464 10.5631 168.715 10.5381 167.89 10.4632C168.29 11.1376 168.54 12.2115 168.59 12.9608C169.664 13.0107 170.688 12.9858 171.262 12.9108C171.936 12.8359 172.486 12.6111 172.96 12.0617C173.585 11.3124 173.91 9.36429 174.209 4.86868C174.234 4.51902 174.259 3.81971 174.259 3.81971H171.437ZM166.567 4.51902C166.367 7.7159 165.892 9.98868 162.72 11.3124C163.295 11.7869 164.044 12.8359 164.319 13.4853C168.14 11.712 168.914 8.66498 169.164 4.51902H166.567ZM154.154 13.6601C154.154 12.711 156.926 11.0626 156.926 11.0626V4.19434H154.029V9.33932C154.029 10.4882 153.43 11.1376 152.93 11.4622C153.355 11.9368 153.954 13.0357 154.154 13.6601ZM154.154 13.6601C154.728 13.2355 155.652 12.8359 161.047 11.1625C160.897 10.5631 160.722 9.4642 160.672 8.68995L154.928 10.3134L153.854 11.2125L154.154 13.6601ZM162.071 16.882V18.905C162.071 20.4784 161.297 22.6263 152.655 24.05C153.38 24.6494 154.254 25.7483 154.603 26.3727C163.72 24.4995 165.218 21.5024 165.218 19.0049V16.882H162.071ZM164.519 22.8261C167.441 23.7003 171.412 25.2238 173.385 26.2978L174.934 23.8751C172.836 22.8261 168.815 21.4025 165.992 20.6782L164.519 22.8261ZM155.253 13.71V21.7022H158.25V16.2326H169.364V21.3776H172.511V13.71H155.253ZM195.232 10.0636H205.747V11.6121H195.232V10.0636ZM195.232 6.26732H205.747V7.81581H195.232V6.26732ZM192.285 3.86966V14.0347H208.794V3.86966H192.285ZM193.834 15.5333V18.1557H208.445V15.5333H193.834ZM207.77 15.5333V15.9579C207.346 20.903 206.796 23.001 206.247 23.5255C205.972 23.8002 205.747 23.8501 205.323 23.8501C204.873 23.8501 203.874 23.8501 202.825 23.7253C203.275 24.4246 203.549 25.5235 203.599 26.2728C204.873 26.3227 206.047 26.3227 206.721 26.2228C207.545 26.1479 208.17 25.9231 208.794 25.2987C209.593 24.4246 210.168 22.1518 210.692 16.7071C210.767 16.3325 210.817 15.5333 210.817 15.5333H207.77ZM195.357 12.711C193.884 15.2835 191.236 17.6312 188.464 19.0548C189.113 19.5294 190.237 20.6283 190.737 21.2027C193.509 19.4794 196.406 16.7071 198.23 13.6351L195.357 12.711ZM197.805 16.4574C196.306 19.4045 193.509 22.0269 190.462 23.5504C191.112 24.05 192.21 25.1239 192.685 25.6983C195.732 23.8252 198.804 20.8031 200.627 17.3065L197.805 16.4574ZM202.925 16.6322C201.851 19.879 199.828 22.8261 197.305 24.5744C197.955 24.999 199.154 25.9231 199.653 26.4226C202.176 24.3746 204.448 21.0529 205.747 17.3065L202.925 16.6322ZM234.588 11.9118C233.514 15.4833 231.491 20.0788 229.693 23.1009L232.465 23.975C234.313 21.1028 236.536 16.7071 238.184 12.786L234.588 11.9118ZM226.795 22.1768L227.195 25.3487C231.94 25.0989 238.884 24.7243 245.302 24.2747L245.377 21.3526C238.834 21.6773 231.516 22.0269 226.795 22.1768ZM239.433 17.4314C241.531 20.1787 243.954 23.975 245.003 26.3727L248.1 24.7243C246.901 22.3266 244.553 18.7801 242.355 16.0827L239.433 17.4314ZM231.94 3.37015C230.642 6.84176 228.269 10.2634 225.672 12.3114C226.496 12.8109 227.944 13.9099 228.594 14.5342C231.141 12.1366 233.764 8.26537 235.362 4.31922L231.94 3.37015ZM242.006 3.39512L239.008 4.61893C240.857 8.09054 243.729 12.0367 246.077 14.5592C246.651 13.76 247.8 12.5612 248.624 11.9368C246.326 9.83883 243.479 6.34224 242.006 3.39512ZM263.254 4.29424V7.14146H281.835V4.29424H263.254ZM263.478 8.93971V11.5372H278.264V8.93971H263.478ZM280.786 4.29424V22.4016C280.786 22.8761 280.612 23.001 280.162 23.001C279.663 23.026 278.039 23.026 276.616 22.951C277.04 23.8002 277.49 25.2987 277.59 26.1979C279.862 26.1979 281.436 26.1229 282.485 25.6234C283.559 25.0989 283.858 24.1748 283.858 22.4515V4.29424H280.786ZM264.777 13.3854V23.7003H267.699V13.3854H264.777ZM267.375 13.3854V15.9828H274.018V19.3046H267.375V21.8771H276.965V13.3854H267.375Z" fill="white"/>
<path d="M1.57871 57.1219V38.9579H8.74501C10.1227 38.9579 11.2964 39.221 12.2661 39.7472C13.2358 40.2676 13.9749 40.9919 14.4834 41.9202C14.9978 42.8426 15.255 43.9069 15.255 45.1131C15.255 46.3193 14.9948 47.3836 14.4745 48.306C13.9542 49.2284 13.2003 49.9468 12.2129 50.4612C11.2313 50.9756 10.0429 51.2328 8.64745 51.2328H4.07982V48.1552H8.02661C8.76571 48.1552 9.37472 48.0281 9.85366 47.7738C10.3385 47.5137 10.6992 47.1559 10.9357 46.7007C11.1781 46.2395 11.2993 45.7103 11.2993 45.1131C11.2993 44.51 11.1781 43.9837 10.9357 43.5344C10.6992 43.0791 10.3385 42.7273 9.85366 42.4789C9.36881 42.2247 8.75388 42.0976 8.00887 42.0976H5.41907V57.1219H1.57871ZM23.6674 57.388C22.2661 57.388 21.0599 57.1042 20.0488 56.5366C19.0436 55.963 18.269 55.153 17.7251 54.1064C17.1811 53.054 16.9091 51.8093 16.9091 50.3725C16.9091 48.9712 17.1811 47.7413 17.7251 46.6829C18.269 45.6245 19.0347 44.7997 20.0222 44.2084C21.0155 43.6171 22.1803 43.3215 23.5166 43.3215C24.4154 43.3215 25.252 43.4664 26.0266 43.7561C26.8071 44.0399 27.4871 44.4686 28.0665 45.0421C28.6519 45.6157 29.1072 46.337 29.4324 47.2062C29.7576 48.0695 29.9202 49.0806 29.9202 50.2395V51.2772H18.4169V48.9357H26.3636C26.3636 48.3917 26.2454 47.9098 26.0089 47.49C25.7724 47.0702 25.4442 46.7421 25.0244 46.5055C24.6105 46.2631 24.1286 46.1419 23.5787 46.1419C23.0052 46.1419 22.4967 46.2749 22.0532 46.541C21.6157 46.8012 21.2727 47.153 21.0244 47.5964C20.7761 48.034 20.6489 48.5218 20.643 49.0599V51.286C20.643 51.9601 20.7672 52.5425 21.0155 53.0333C21.2698 53.524 21.6275 53.9024 22.0887 54.1685C22.5499 54.4346 23.0968 54.5676 23.7295 54.5676C24.1493 54.5676 24.5336 54.5085 24.8825 54.3902C25.2313 54.272 25.5299 54.0946 25.7783 53.8581C26.0266 53.6216 26.2158 53.3319 26.3459 52.9889L29.8404 53.2195C29.663 54.0591 29.2993 54.7923 28.7494 55.4191C28.2055 56.0399 27.5018 56.5248 26.6386 56.8736C25.7812 57.2166 24.7908 57.388 23.6674 57.388ZM32.3858 57.1219V43.4989H36.0488V45.8758H36.1907C36.439 45.0303 36.8559 44.3917 37.4412 43.9601C38.0266 43.5225 38.7007 43.3038 39.4634 43.3038C39.6526 43.3038 39.8566 43.3156 40.0754 43.3392C40.2942 43.3629 40.4863 43.3954 40.6519 43.4368V46.7894C40.4745 46.7361 40.2291 46.6888 39.9157 46.6474C39.6024 46.6061 39.3156 46.5854 39.0554 46.5854C38.4996 46.5854 38.003 46.7066 37.5654 46.949C37.1338 47.1855 36.7908 47.5166 36.5366 47.9423C36.2882 48.3681 36.1641 48.8588 36.1641 49.4146V57.1219H32.3858ZM46.3836 49.2461V57.1219H42.6053V43.4989H46.2062V45.9024H46.3658C46.6674 45.1101 47.1729 44.4834 47.8825 44.0222C48.592 43.5551 49.4523 43.3215 50.4634 43.3215C51.4095 43.3215 52.2343 43.5285 52.9379 43.9423C53.6415 44.3562 54.1885 44.9475 54.5787 45.7162C54.969 46.4789 55.1641 47.3895 55.1641 48.4479V57.1219H51.3858V49.1219C51.3917 48.2882 51.1789 47.6378 50.7472 47.1707C50.3156 46.6977 49.7214 46.4612 48.9645 46.4612C48.456 46.4612 48.0066 46.5706 47.6164 46.7894C47.2321 47.0081 46.9305 47.3274 46.7117 47.7472C46.4989 48.1611 46.3895 48.6608 46.3836 49.2461ZM58.1419 57.1219V43.4989H61.9202V57.1219H58.1419ZM60.0399 41.7428C59.4782 41.7428 58.9963 41.5565 58.5942 41.184C58.1981 40.8056 58 40.3533 58 39.827C58 39.3067 58.1981 38.8603 58.5942 38.4878C58.9963 38.1094 59.4782 37.9202 60.0399 37.9202C60.6016 37.9202 61.0806 38.1094 61.4767 38.4878C61.8788 38.8603 62.0798 39.3067 62.0798 39.827C62.0798 40.3533 61.8788 40.8056 61.4767 41.184C61.0806 41.5565 60.6016 41.7428 60.0399 41.7428ZM68.8315 57.3792C67.9623 57.3792 67.1877 57.2284 66.5078 56.9268C65.8278 56.6194 65.2897 56.167 64.8936 55.5698C64.5033 54.9667 64.3082 54.2158 64.3082 53.3171C64.3082 52.5602 64.4472 51.9246 64.7251 51.4102C65.003 50.8958 65.3814 50.4819 65.8603 50.1685C66.3392 49.8551 66.8832 49.6186 67.4922 49.459C68.1072 49.2993 68.7517 49.187 69.4257 49.1219C70.218 49.0392 70.8566 48.9623 71.3415 48.8913C71.8263 48.8145 72.1781 48.7021 72.3969 48.5543C72.6157 48.4065 72.7251 48.1877 72.7251 47.898V47.8448C72.7251 47.2831 72.5477 46.8485 72.1929 46.541C71.844 46.2336 71.3474 46.0798 70.7029 46.0798C70.0229 46.0798 69.4819 46.2306 69.0798 46.5321C68.6778 46.8278 68.4117 47.2003 68.2816 47.6497L64.7871 47.3659C64.9645 46.5381 65.3134 45.8226 65.8337 45.2195C66.354 44.6105 67.0251 44.1434 67.847 43.8182C68.6748 43.4871 69.6327 43.3215 70.7206 43.3215C71.4775 43.3215 72.2018 43.4102 72.8936 43.5876C73.5913 43.765 74.2092 44.0399 74.7472 44.4124C75.2912 44.7849 75.7199 45.2639 76.0333 45.8492C76.3466 46.4287 76.5033 47.1234 76.5033 47.9335V57.1219H72.9202V55.2328H72.8137C72.595 55.6585 72.3023 56.034 71.9357 56.3592C71.5691 56.6785 71.1286 56.9298 70.6142 57.1131C70.0998 57.2905 69.5055 57.3792 68.8315 57.3792ZM69.9135 54.7716C70.4693 54.7716 70.9601 54.6622 71.3858 54.4435C71.8115 54.2188 72.1456 53.9172 72.388 53.5388C72.6304 53.1604 72.7517 52.7317 72.7517 52.2528V50.8071C72.6334 50.884 72.4708 50.9549 72.2639 51.02C72.0628 51.0791 71.8352 51.1353 71.5809 51.1885C71.3267 51.2358 71.0724 51.2801 70.8182 51.3215C70.5639 51.357 70.3333 51.3895 70.1264 51.4191C69.6829 51.4841 69.2956 51.5876 68.9645 51.7295C68.6334 51.8714 68.3762 52.0636 68.1929 52.306C68.0096 52.5425 67.918 52.8381 67.918 53.1929C67.918 53.7073 68.1042 54.1005 68.4767 54.3725C68.8551 54.6386 69.3341 54.7716 69.9135 54.7716ZM85.5721 62.5144C84.3481 62.5144 83.2986 62.3459 82.4235 62.0089C81.5543 61.6778 80.8625 61.2254 80.3481 60.6519C79.8337 60.0783 79.4996 59.4338 79.3459 58.7184L82.8404 58.2483C82.9468 58.5203 83.1153 58.7746 83.3459 59.0111C83.5765 59.2476 83.881 59.4368 84.2594 59.5787C84.6438 59.7265 85.1109 59.8004 85.6608 59.8004C86.4826 59.8004 87.1596 59.5994 87.6918 59.1973C88.2299 58.8012 88.4989 58.136 88.4989 57.2018V54.7095H88.3392C88.1737 55.0879 87.9253 55.4457 87.5942 55.7827C87.2631 56.1197 86.8374 56.3947 86.3171 56.6075C85.7967 56.8204 85.1759 56.9268 84.4545 56.9268C83.4316 56.9268 82.5004 56.6903 81.6608 56.2173C80.827 55.7384 80.1619 55.0081 79.6652 54.0266C79.1744 53.0392 78.929 51.7916 78.929 50.2838C78.929 48.7406 79.1803 47.4516 79.6829 46.4168C80.1855 45.3821 80.8537 44.6075 81.6874 44.0931C82.527 43.5787 83.4464 43.3215 84.4457 43.3215C85.2084 43.3215 85.847 43.4516 86.3614 43.7117C86.8758 43.966 87.2897 44.2853 87.6031 44.6696C87.9224 45.048 88.1678 45.4205 88.3392 45.7871H88.4812V43.4989H92.2328V57.255C92.2328 58.4139 91.949 59.3836 91.3814 60.1641C90.8137 60.9446 90.0273 61.5299 89.0222 61.9202C88.0229 62.3163 86.8729 62.5144 85.5721 62.5144ZM85.6519 54.0887C86.2609 54.0887 86.7753 53.9379 87.1951 53.6364C87.6208 53.3289 87.946 52.8913 88.1707 52.3237C88.4013 51.7502 88.5166 51.0643 88.5166 50.2661C88.5166 49.4678 88.4043 48.7761 88.1796 48.1907C87.9549 47.5994 87.6297 47.1412 87.204 46.816C86.7783 46.4908 86.2609 46.3282 85.6519 46.3282C85.031 46.3282 84.5078 46.4967 84.082 46.8337C83.6563 47.1648 83.3341 47.626 83.1153 48.2173C82.8965 48.8086 82.7871 49.4915 82.7871 50.2661C82.7871 51.0525 82.8965 51.7324 83.1153 52.306C83.34 52.8736 83.6622 53.3141 84.082 53.6275C84.5078 53.935 85.031 54.0887 85.6519 54.0887ZM99.1242 57.3792C98.255 57.3792 97.4804 57.2284 96.8004 56.9268C96.1205 56.6194 95.5824 56.167 95.1863 55.5698C94.796 54.9667 94.6009 54.2158 94.6009 53.3171C94.6009 52.5602 94.7398 51.9246 95.0177 51.4102C95.2956 50.8958 95.6741 50.4819 96.153 50.1685C96.6319 49.8551 97.1759 49.6186 97.7849 49.459C98.3998 49.2993 99.0443 49.187 99.7184 49.1219C100.511 49.0392 101.149 48.9623 101.634 48.8913C102.119 48.8145 102.471 48.7021 102.69 48.5543C102.908 48.4065 103.018 48.1877 103.018 47.898V47.8448C103.018 47.2831 102.84 46.8485 102.486 46.541C102.137 46.2336 101.64 46.0798 100.996 46.0798C100.316 46.0798 99.7746 46.2306 99.3725 46.5321C98.9704 46.8278 98.7044 47.2003 98.5743 47.6497L95.0798 47.3659C95.2572 46.5381 95.6061 45.8226 96.1264 45.2195C96.6467 44.6105 97.3178 44.1434 98.1397 43.8182C98.9675 43.4871 99.9253 43.3215 101.013 43.3215C101.77 43.3215 102.494 43.4102 103.186 43.5876C103.884 43.765 104.502 44.0399 105.04 44.4124C105.584 44.7849 106.013 45.2639 106.326 45.8492C106.639 46.4287 106.796 47.1234 106.796 47.9335V57.1219H103.213V55.2328H103.106C102.888 55.6585 102.595 56.034 102.228 56.3592C101.862 56.6785 101.421 56.9298 100.907 57.1131C100.392 57.2905 99.7982 57.3792 99.1242 57.3792ZM100.206 54.7716C100.762 54.7716 101.253 54.6622 101.678 54.4435C102.104 54.2188 102.438 53.9172 102.681 53.5388C102.923 53.1604 103.044 52.7317 103.044 52.2528V50.8071C102.926 50.884 102.763 50.9549 102.557 51.02C102.356 51.0791 102.128 51.1353 101.874 51.1885C101.619 51.2358 101.365 51.2801 101.111 51.3215C100.857 51.357 100.626 51.3895 100.419 51.4191C99.9756 51.4841 99.5883 51.5876 99.2572 51.7295C98.9261 51.8714 98.6689 52.0636 98.4856 52.306C98.3023 52.5425 98.2106 52.8381 98.2106 53.1929C98.2106 53.7073 98.3969 54.1005 98.7694 54.3725C99.1478 54.6386 99.6268 54.7716 100.206 54.7716ZM113.612 57.3792C112.743 57.3792 111.968 57.2284 111.288 56.9268C110.608 56.6194 110.07 56.167 109.674 55.5698C109.284 54.9667 109.089 54.2158 109.089 53.3171C109.089 52.5602 109.228 51.9246 109.506 51.4102C109.783 50.8958 110.162 50.4819 110.641 50.1685C111.12 49.8551 111.664 49.6186 112.273 49.459C112.888 49.2993 113.532 49.187 114.206 49.1219C114.999 49.0392 115.637 48.9623 116.122 48.8913C116.607 48.8145 116.959 48.7021 117.177 48.5543C117.396 48.4065 117.506 48.1877 117.506 47.898V47.8448C117.506 47.2831 117.328 46.8485 116.973 46.541C116.625 46.2336 116.128 46.0798 115.483 46.0798C114.803 46.0798 114.262 46.2306 113.86 46.5321C113.458 46.8278 113.192 47.2003 113.062 47.6497L109.568 47.3659C109.745 46.5381 110.094 45.8226 110.614 45.2195C111.135 44.6105 111.806 44.1434 112.627 43.8182C113.455 43.4871 114.413 43.3215 115.501 43.3215C116.258 43.3215 116.982 43.4102 117.674 43.5876C118.372 43.765 118.99 44.0399 119.528 44.4124C120.072 44.7849 120.5 45.2639 120.814 45.8492C121.127 46.4287 121.284 47.1234 121.284 47.9335V57.1219H117.701V55.2328H117.594C117.375 55.6585 117.083 56.034 116.716 56.3592C116.35 56.6785 115.909 56.9298 115.395 57.1131C114.88 57.2905 114.286 57.3792 113.612 57.3792ZM114.694 54.7716C115.25 54.7716 115.741 54.6622 116.166 54.4435C116.592 54.2188 116.926 53.9172 117.169 53.5388C117.411 53.1604 117.532 52.7317 117.532 52.2528V50.8071C117.414 50.884 117.251 50.9549 117.044 51.02C116.843 51.0791 116.616 51.1353 116.361 51.1885C116.107 51.2358 115.853 51.2801 115.599 51.3215C115.344 51.357 115.114 51.3895 114.907 51.4191C114.463 51.4841 114.076 51.5876 113.745 51.7295C113.414 51.8714 113.157 52.0636 112.973 52.306C112.79 52.5425 112.698 52.8381 112.698 53.1929C112.698 53.7073 112.885 54.1005 113.257 54.3725C113.636 54.6386 114.115 54.7716 114.694 54.7716ZM127.993 49.2461V57.1219H124.215V43.4989H127.816V45.9024H127.976C128.277 45.1101 128.783 44.4834 129.492 44.0222C130.202 43.5551 131.062 43.3215 132.073 43.3215C133.019 43.3215 133.844 43.5285 134.548 43.9423C135.251 44.3562 135.798 44.9475 136.188 45.7162C136.579 46.4789 136.774 47.3895 136.774 48.4479V57.1219H132.996V49.1219C133.001 48.2882 132.789 47.6378 132.357 47.1707C131.925 46.6977 131.331 46.4612 130.574 46.4612C130.066 46.4612 129.616 46.5706 129.226 46.7894C128.842 47.0081 128.54 47.3274 128.322 47.7472C128.109 48.1611 127.999 48.6608 127.993 49.2461ZM145.603 38.9579H150.339L155.341 51.1619H155.554L160.557 38.9579H165.293V57.1219H161.568V45.2993H161.417L156.716 57.0333H154.18L149.479 45.255H149.328V57.1219H145.603V38.9579ZM174.541 57.388C173.163 57.388 171.972 57.0953 170.967 56.51C169.967 55.9187 169.196 55.0968 168.652 54.0443C168.108 52.986 167.836 51.7591 167.836 50.3636C167.836 48.9564 168.108 47.7265 168.652 46.6741C169.196 45.6157 169.967 44.7938 170.967 44.2084C171.972 43.6171 173.163 43.3215 174.541 43.3215C175.919 43.3215 177.107 43.6171 178.106 44.2084C179.112 44.7938 179.886 45.6157 180.43 46.6741C180.974 47.7265 181.246 48.9564 181.246 50.3636C181.246 51.7591 180.974 52.986 180.43 54.0443C179.886 55.0968 179.112 55.9187 178.106 56.51C177.107 57.0953 175.919 57.388 174.541 57.388ZM174.559 54.4612C175.186 54.4612 175.709 54.2838 176.129 53.929C176.548 53.5684 176.865 53.0776 177.078 52.4568C177.296 51.8359 177.406 51.1293 177.406 50.337C177.406 49.5447 177.296 48.8381 177.078 48.2173C176.865 47.5964 176.548 47.1057 176.129 46.745C175.709 46.3843 175.186 46.204 174.559 46.204C173.926 46.204 173.394 46.3843 172.962 46.745C172.537 47.1057 172.214 47.5964 171.996 48.2173C171.783 48.8381 171.676 49.5447 171.676 50.337C171.676 51.1293 171.783 51.8359 171.996 52.4568C172.214 53.0776 172.537 53.5684 172.962 53.929C173.394 54.2838 173.926 54.4612 174.559 54.4612ZM190.949 43.4989V46.337H182.745V43.4989H190.949ZM184.608 40.235H188.386V52.9357C188.386 53.2845 188.439 53.5565 188.545 53.7517C188.652 53.9409 188.8 54.0739 188.989 54.1508C189.184 54.2276 189.409 54.2661 189.663 54.2661C189.84 54.2661 190.018 54.2513 190.195 54.2217C190.372 54.1862 190.508 54.1596 190.603 54.1419L191.197 56.9534C191.008 57.0126 190.742 57.0806 190.399 57.1574C190.056 57.2402 189.639 57.2905 189.149 57.3082C188.238 57.3437 187.44 57.2225 186.754 56.9446C186.074 56.6667 185.545 56.235 185.166 55.6497C184.788 55.0643 184.602 54.3252 184.608 53.4324V40.235ZM199.419 57.388C198.041 57.388 196.85 57.0953 195.845 56.51C194.846 55.9187 194.074 55.0968 193.53 54.0443C192.986 52.986 192.714 51.7591 192.714 50.3636C192.714 48.9564 192.986 47.7265 193.53 46.6741C194.074 45.6157 194.846 44.7938 195.845 44.2084C196.85 43.6171 198.041 43.3215 199.419 43.3215C200.797 43.3215 201.985 43.6171 202.984 44.2084C203.99 44.7938 204.764 45.6157 205.308 46.6741C205.852 47.7265 206.124 48.9564 206.124 50.3636C206.124 51.7591 205.852 52.986 205.308 54.0443C204.764 55.0968 203.99 55.9187 202.984 56.51C201.985 57.0953 200.797 57.388 199.419 57.388ZM199.437 54.4612C200.064 54.4612 200.587 54.2838 201.007 53.929C201.426 53.5684 201.743 53.0776 201.956 52.4568C202.174 51.8359 202.284 51.1293 202.284 50.337C202.284 49.5447 202.174 48.8381 201.956 48.2173C201.743 47.5964 201.426 47.1057 201.007 46.745C200.587 46.3843 200.064 46.204 199.437 46.204C198.804 46.204 198.272 46.3843 197.84 46.745C197.415 47.1057 197.092 47.5964 196.874 48.2173C196.661 48.8381 196.554 49.5447 196.554 50.337C196.554 51.1293 196.661 51.8359 196.874 52.4568C197.092 53.0776 197.415 53.5684 197.84 53.929C198.272 54.2838 198.804 54.4612 199.437 54.4612ZM208.581 57.1219V43.4989H212.244V45.8758H212.386C212.634 45.0303 213.051 44.3917 213.636 43.9601C214.222 43.5225 214.896 43.3038 215.659 43.3038C215.848 43.3038 216.052 43.3156 216.271 43.3392C216.489 43.3629 216.681 43.3954 216.847 43.4368V46.7894C216.67 46.7361 216.424 46.6888 216.111 46.6474C215.797 46.6061 215.511 46.5854 215.251 46.5854C214.695 46.5854 214.198 46.7066 213.761 46.949C213.329 47.1855 212.986 47.5166 212.732 47.9423C212.483 48.3681 212.359 48.8588 212.359 49.4146V57.1219H208.581ZM224.652 57.1219V38.9579H228.492V46.9667H228.732L235.268 38.9579H239.871L233.131 47.0909L239.951 57.1219H235.357L230.381 49.6541L228.492 51.9601V57.1219H224.652ZM247.009 57.388C245.608 57.388 244.401 57.1042 243.39 56.5366C242.385 55.963 241.61 55.153 241.067 54.1064C240.523 53.054 240.251 51.8093 240.251 50.3725C240.251 48.9712 240.523 47.7413 241.067 46.6829C241.61 45.6245 242.376 44.7997 243.364 44.2084C244.357 43.6171 245.522 43.3215 246.858 43.3215C247.757 43.3215 248.593 43.4664 249.368 43.7561C250.149 44.0399 250.829 44.4686 251.408 45.0421C251.993 45.6157 252.449 46.337 252.774 47.2062C253.099 48.0695 253.262 49.0806 253.262 50.2395V51.2772H241.758V48.9357H249.705C249.705 48.3917 249.587 47.9098 249.35 47.49C249.114 47.0702 248.786 46.7421 248.366 46.5055C247.952 46.2631 247.47 46.1419 246.92 46.1419C246.347 46.1419 245.838 46.2749 245.395 46.541C244.957 46.8012 244.614 47.153 244.366 47.5964C244.118 48.034 243.99 48.5218 243.984 49.0599V51.286C243.984 51.9601 244.109 52.5425 244.357 53.0333C244.611 53.524 244.969 53.9024 245.43 54.1685C245.891 54.4346 246.438 54.5676 247.071 54.5676C247.491 54.5676 247.875 54.5085 248.224 54.3902C248.573 54.272 248.871 54.0946 249.12 53.8581C249.368 53.6216 249.557 53.3319 249.687 52.9889L253.182 53.2195C253.004 54.0591 252.641 54.7923 252.091 55.4191C251.547 56.0399 250.843 56.5248 249.98 56.8736C249.123 57.2166 248.132 57.388 247.009 57.388ZM259.151 53.2018L259.16 48.6696H259.71L264.073 43.4989H268.41L262.548 50.3459H261.652L259.151 53.2018ZM255.727 57.1219V38.9579H259.506V57.1219H255.727ZM264.242 57.1219L260.233 51.1885L262.752 48.5188L268.667 57.1219H264.242ZM274.149 57.3792C273.279 57.3792 272.505 57.2284 271.825 56.9268C271.145 56.6194 270.607 56.167 270.211 55.5698C269.82 54.9667 269.625 54.2158 269.625 53.3171C269.625 52.5602 269.764 51.9246 270.042 51.4102C270.32 50.8958 270.698 50.4819 271.177 50.1685C271.656 49.8551 272.2 49.6186 272.809 49.459C273.424 49.2993 274.069 49.187 274.743 49.1219C275.535 49.0392 276.174 48.9623 276.659 48.8913C277.143 48.8145 277.495 48.7021 277.714 48.5543C277.933 48.4065 278.042 48.1877 278.042 47.898V47.8448C278.042 47.2831 277.865 46.8485 277.51 46.541C277.161 46.2336 276.664 46.0798 276.02 46.0798C275.34 46.0798 274.799 46.2306 274.397 46.5321C273.995 46.8278 273.729 47.2003 273.599 47.6497L270.104 47.3659C270.282 46.5381 270.63 45.8226 271.151 45.2195C271.671 44.6105 272.342 44.1434 273.164 43.8182C273.992 43.4871 274.95 43.3215 276.038 43.3215C276.795 43.3215 277.519 43.4102 278.211 43.5876C278.908 43.765 279.526 44.0399 280.064 44.4124C280.608 44.7849 281.037 45.2639 281.35 45.8492C281.664 46.4287 281.82 47.1234 281.82 47.9335V57.1219H278.237V55.2328H278.131C277.912 55.6585 277.619 56.034 277.253 56.3592C276.886 56.6785 276.446 56.9298 275.931 57.1131C275.417 57.2905 274.823 57.3792 274.149 57.3792ZM275.231 54.7716C275.786 54.7716 276.277 54.6622 276.703 54.4435C277.129 54.2188 277.463 53.9172 277.705 53.5388C277.947 53.1604 278.069 52.7317 278.069 52.2528V50.8071C277.95 50.884 277.788 50.9549 277.581 51.02C277.38 51.0791 277.152 51.1353 276.898 51.1885C276.644 51.2358 276.389 51.2801 276.135 51.3215C275.881 51.357 275.65 51.3895 275.443 51.4191C275 51.4841 274.613 51.5876 274.282 51.7295C273.95 51.8714 273.693 52.0636 273.51 52.306C273.327 52.5425 273.235 52.8381 273.235 53.1929C273.235 53.7073 273.421 54.1005 273.794 54.3725C274.172 54.6386 274.651 54.7716 275.231 54.7716ZM288.53 38.9579V57.1219H284.752V38.9579H288.53Z" fill="white"/>
</svg>
