<svg width="108" height="108" viewBox="0 0 108 108" fill="none" xmlns="http://www.w3.org/2000/svg">
<rect x="1" y="1" width="106" height="106" rx="53" fill="white"/>
<path d="M30.9025 24.0027C30.7131 24.0202 30.5326 24.0914 30.3821 24.2078C30.2317 24.3243 30.1176 24.4811 30.0533 24.6601C29.9889 24.8391 29.9769 25.0328 30.0187 25.2183C30.0605 25.4039 30.1543 25.5737 30.2892 25.7078L37.0001 32.4109V34.5886L34.5861 37.0027H32.4161L25.7052 30.2918C25.5651 30.1525 25.3869 30.0579 25.1931 30.0198C24.9993 29.9817 24.7986 30.0019 24.6162 30.0777C24.4339 30.1535 24.278 30.2817 24.1684 30.446C24.0588 30.6103 24.0002 30.8033 24.0001 31.0008V39.0027C24.0022 39.2662 24.1082 39.5182 24.295 39.7039L29.2931 44.7078C29.3865 44.8002 29.4972 44.8733 29.6188 44.9229C29.7405 44.9725 29.8707 44.9977 30.0021 44.997H37.5841L46.17 53.5829L53.5861 46.1688L45.0021 37.5848V29.997C45 29.7335 44.894 29.4815 44.7071 29.2958L39.7091 24.2899C39.5202 24.104 39.2652 24.0006 39.0001 24.0026H30.9982C30.9663 24.0011 30.9343 24.0011 30.9025 24.0026L30.9025 24.0027ZM79.8888 24.0027C79.7703 24.0179 79.6551 24.0519 79.5489 24.1063L69.5548 29.1024C69.2161 29.2713 69.0007 29.6184 69.0001 29.997V33.5848L46.4161 56.1688L51.8282 61.5867L74.4122 39.0027H78.0001C78.3786 39.0021 78.7237 38.7866 78.8927 38.4481L83.8966 28.4462C84.0865 28.0609 84.0098 27.5966 83.7052 27.2938L80.7091 24.2898C80.494 24.074 80.1915 23.969 79.8888 24.0026V24.0027ZM61.8321 54.4149L54.4161 61.8309L62.9982 70.4129V78.0008C62.9984 78.1327 63.0248 78.2632 63.0758 78.3849C63.1267 78.5066 63.2012 78.6171 63.295 78.7098L68.2911 83.7078C68.3841 83.8012 68.4945 83.8753 68.6162 83.9259C68.7379 83.9765 68.8684 84.0026 69.0001 84.0026H77.0021C77.2005 84.0026 77.3945 83.9435 77.5592 83.8328C77.724 83.7222 77.8521 83.5651 77.9273 83.3814C78.0024 83.1977 78.0213 82.9959 77.9814 82.8015C77.9415 82.6071 77.8447 82.4289 77.7032 82.2897L71.0021 75.5867V73.4168L73.4142 70.9949H75.5861L82.295 77.7059C82.4351 77.8451 82.6133 77.9398 82.8071 77.9779C83.0009 78.016 83.2016 77.9958 83.384 77.92C83.5664 77.8441 83.7222 77.7159 83.8318 77.5517C83.9415 77.3874 84 77.1944 84.0001 76.9969V69.0027C84.0001 68.871 83.974 68.7404 83.9234 68.6188C83.8728 68.4971 83.7986 68.3867 83.7052 68.2937L78.7072 63.2879C78.5182 63.102 78.2632 62.9987 77.9982 63.0007H70.4181L61.8321 54.4149ZM42.9864 55.9949C42.7257 55.9991 42.4769 56.1049 42.2931 56.2897L39.9982 58.5847L49.4122 67.9948L51.7052 65.7019C51.8915 65.5145 51.996 65.261 51.996 64.9968C51.996 64.7326 51.8915 64.4791 51.7052 64.2917L43.7111 56.2897C43.6163 56.1944 43.5033 56.1192 43.3788 56.0685C43.2543 56.0179 43.1208 55.9929 42.9864 55.9949ZM38.5861 59.9968L26.1271 72.4578C23.4154 75.1695 23.2559 79.5007 25.8751 82.1199C28.4943 84.7391 32.8275 84.5797 35.5392 81.8679L47.9962 69.4109L38.5861 59.9968Z" fill="#A54E50"/>
<rect x="1" y="1" width="106" height="106" rx="53" stroke="#A54E50" stroke-width="2"/>
</svg>
