<svg width="108" height="108" viewBox="0 0 108 108" fill="none" xmlns="http://www.w3.org/2000/svg">
<rect x="1" y="1" width="106" height="106" rx="53" fill="white"/>
<path d="M31.5115 37.7053C31.637 37.644 31.759 37.5778 31.8771 37.5117C31.9371 37.5907 31.9998 37.6664 32.0736 37.7389L38.9892 44.6561C39.422 44.1485 40.0591 43.8287 40.7496 43.8287C40.9732 43.8287 41.1958 43.8608 41.4101 43.9246L42.2723 44.1811L42.809 42.3757L35.1228 34.6889C35.0008 34.5684 34.8697 34.467 34.7282 34.3804L34.7463 34.3009C34.7645 34.2278 34.7882 34.1729 34.8104 34.1098C34.8281 34.0626 34.8468 34.0132 34.8643 33.9613C34.8867 33.911 34.9089 33.8576 34.9313 33.8019C34.9695 33.7091 35.0101 33.6085 35.0622 33.5063L35.2066 33.2132L35.371 32.9228C35.4404 32.7894 35.5188 32.6736 35.6081 32.541C35.656 32.4709 35.704 32.398 35.7529 32.324C35.7961 32.2663 35.8414 32.2075 35.886 32.1465C35.998 31.9987 36.1025 31.8585 36.2159 31.7372L36.2951 31.6499C36.4452 31.4861 36.5952 31.3168 36.7699 31.1726C36.8255 31.123 36.8674 31.0846 36.9116 31.0455C36.9706 30.9905 37.0304 30.9344 37.0942 30.8841L37.4311 30.6393C37.4425 30.6327 37.4502 30.6256 37.4578 30.6182C37.5926 30.5106 37.7543 30.4194 37.9271 30.3231C37.9964 30.2853 38.0635 30.2478 38.1315 30.2073C38.2761 30.1146 38.4253 30.0546 38.5841 29.991C38.6641 29.9574 38.7424 29.9255 38.8225 29.8911C38.8685 29.8729 38.9157 29.8517 38.962 29.8312C39.0123 29.8105 39.0617 29.7856 39.112 29.773L39.4825 29.669C39.556 29.6508 39.6415 29.6261 39.7278 29.6012C39.8482 29.566 39.9647 29.5326 40.0431 29.5221L41.0349 29.377C41.1792 29.3561 41.3071 29.2889 41.4055 29.1918C41.513 29.083 41.5851 28.936 41.5952 28.7742C41.6164 28.4659 41.4205 28.184 41.1244 28.0971L40.147 27.8191C39.977 27.7681 39.7964 27.7416 39.6224 27.7161C39.5449 27.7041 39.4657 27.6927 39.3819 27.6787L38.954 27.6125C38.8198 27.5907 38.6939 27.5875 38.5819 27.5852C38.5379 27.5837 38.4934 27.5828 38.4471 27.5805C38.3351 27.579 38.2539 27.5746 38.1701 27.5707C37.9209 27.5603 37.639 27.5493 37.3395 27.5884L37.1498 27.6036C36.8631 27.6274 36.5348 27.6539 36.2051 27.733L35.6764 27.8399C35.5138 27.8801 35.3777 27.9221 35.2413 27.9646L35.0745 28.0156C34.6922 28.1216 34.3306 28.2734 33.9805 28.421L33.9325 28.4411C33.6323 28.5655 33.3597 28.7108 33.0962 28.8512L32.8776 28.9676C32.8623 28.9752 32.8507 28.9839 32.8354 28.9918C32.7509 29.0444 32.6644 29.0963 32.5805 29.1474C32.3523 29.2855 32.1148 29.4286 31.8953 29.5916L31.5297 29.8525C31.522 29.8591 31.4861 29.8852 31.4771 29.8926L31.1153 30.1814C31.0178 30.2567 30.9279 30.333 30.8417 30.4084C30.1901 30.5169 29.5639 30.8192 29.0619 31.3227L28.2872 32.0962C27.9305 32.4533 27.5959 32.954 27.3203 33.515C26.1058 33.2817 24.4578 35.0752 22 37.5323L27.496 43.0256C29.3803 41.1405 31.7463 38.9198 31.5115 37.7053Z" fill="#A54E50"/>
<path d="M74.608 37.3646L78.0704 38.0343L81.5946 33.5847C82.2381 32.7773 83.3084 32.4076 84.3073 32.6439V30.7277H79.1024V34.8915H73.4968L74.608 37.3646Z" fill="#A54E50"/>
<path d="M43.1865 38.4889L44.255 34.8908H39.5896L43.1865 38.4889Z" fill="#A54E50"/>
<path d="M84.3074 57.2687V43.9312C84.2138 44.0594 84.121 44.1889 84.0213 44.3143C82.5728 46.1436 80.6506 47.4601 78.4962 48.1612H79.1045V57.2687H66.9043H65.1595L71.6938 48.3593C71.8123 48.2077 71.9215 48.0509 72.0227 47.8906C75.6733 48.8056 79.6899 47.5869 82.1744 44.4516C83.9871 42.1629 84.692 39.2081 84.1066 36.3429C84.0417 36.0181 83.7924 35.7612 83.4711 35.6837C83.1479 35.6076 82.8105 35.7241 82.6037 35.983L78.3919 41.3005L72.9161 40.2405L70.6299 35.1519L74.8436 29.834C75.0498 29.5746 75.0857 29.2184 74.9372 28.9228C74.7883 28.6262 74.4818 28.4432 74.1514 28.4525C71.2272 28.5387 68.5115 29.9002 66.6982 32.1888C64.2166 35.3226 63.9483 39.509 65.6697 42.8522C65.5394 42.9894 65.4115 43.1349 65.2883 43.2896L56.8327 53.3489L58.8791 55.3956C59.4093 55.9258 59.7801 56.5683 59.9783 57.2685H59.066C58.8992 56.8093 58.6355 56.3781 58.2659 56.0094L46.6262 44.3676L46.3237 45.3825L47.1124 45.6172C47.7059 45.7929 48.1951 46.1895 48.4898 46.7334C48.7842 47.2772 48.8496 47.9041 48.6735 48.4971C48.5785 48.8149 48.4153 49.108 48.1998 49.3555C48.2607 49.8994 48.2144 50.4503 48.0541 50.9801L47.0088 54.5004L49.777 57.2668H48.8901H46.9527H45.0085L47.0638 50.347C47.2404 49.7579 47.2254 49.1567 47.0601 48.6089C47.3497 48.4612 47.5823 48.1991 47.6827 47.8624C47.8754 47.21 47.5037 46.5232 46.8507 46.3301L45.0237 45.7862L49.9898 29.0712L50.1461 29.1176L51.4325 26.6271L51.9371 22.7427L49.7931 22.1064L48.1245 25.6461L47.8564 28.4386L48.0152 28.4859L43.049 45.202L41.1475 44.6372C40.4967 44.4434 39.8086 44.8154 39.6152 45.4677C39.522 45.7831 39.5603 46.1055 39.6984 46.378C39.241 46.7492 38.8847 47.2588 38.7041 47.8662L35.9149 57.2687H34.0561H33.3055V48.1621H36.7615L37.3792 46.0797C37.5349 45.5581 37.6413 45.4146 37.9517 44.9795L32.3724 39.2632C31.6084 40.3154 30.8518 41.4071 29.6751 42.5751L28.1019 44.1468V57.2687H26.4092V75.4852C26.4092 81.2329 31.071 85.8936 36.8195 85.8936H75.5921C81.3413 85.8936 86.0002 81.2336 86.0002 75.4852V57.2687H84.3074ZM43.4517 50.7989C43.6569 50.1056 44.3852 49.712 45.0784 49.9171C45.7687 50.1227 46.1643 50.8509 45.9583 51.5435L44.2588 57.2688H41.5298L43.4517 50.7989ZM39.2357 49.5467C39.4411 48.8546 40.1695 48.46 40.8622 48.6651C41.5546 48.8706 41.9492 49.5986 41.7431 50.2908L39.6706 57.2688H36.9422L39.2357 49.5467Z" fill="#A54E50"/>
<path d="M50.2043 34.8908L48.1907 41.6692L54.6847 48.1621H58.1657L63.9554 41.2753C63.1602 39.2191 62.9805 37.0049 63.3744 34.8907H50.2043V34.8908Z" fill="#A54E50"/>
<rect x="1" y="1" width="106" height="106" rx="53" stroke="#A54E50" stroke-width="2"/>
</svg>
